2.5Hzhigh3min_grf.mot
version=1
nRows=15
nColumns 19
inDegrees=yes
endheader
time	1_ground_force_vx	1_ground_force_vy	1_ground_force_vz	1_ground_force_px	1_ground_force_py	1_ground_force_pz	1_ground_torque_x	1_ground_torque_y	1_ground_torque_z	2_ground_force_vx	2_ground_force_vy	2_ground_force_vz	2_ground_force_px	2_ground_force_py	2_ground_force_pz	2_ground_torque_x	2_ground_torque_y	2_ground_torque_z
            1.253500	          -14.481978	          943.352860	         -127.941866	           -0.218262	            0.006088	           -0.373270	            0.105229	           -6.854620	            0.929655	           -6.440156	          847.840108	           96.884075	           -0.231614	            0.005745	           -0.724941	           -0.028191	            3.711331	            0.424100
            1.254000	          -14.579327	          952.553242	         -129.507178	           -0.218554	            0.006089	           -0.373401	            0.107146	           -7.000468	            0.951769	           -5.723919	          857.230066	           98.137397	           -0.231871	            0.005744	           -0.724923	           -0.025153	            3.766918	            0.431244
            1.254500	          -14.493516	          962.294623	         -131.116494	           -0.218612	            0.006088	           -0.373314	            0.104251	           -6.921734	            0.943114	           -4.723780	          865.883182	           99.716475	           -0.231902	            0.005744	           -0.725093	           -0.020646	            3.784516	            0.435831
            1.255000	          -14.454477	          972.758556	         -133.043583	           -0.218891	            0.006089	           -0.373444	            0.101150	           -6.807190	            0.931015	           -4.007625	          875.273809	          100.782085	           -0.232086	            0.005744	           -0.725117	           -0.017611	            3.846208	            0.442866
            1.255500	          -14.368391	          982.859940	         -134.513751	           -0.218946	            0.006088	           -0.373328	            0.098187	           -6.716409	            0.919205	           -3.099418	          883.375945	          101.843015	           -0.232393	            0.005742	           -0.725108	           -0.013662	            3.893985	            0.448931
            1.256000	          -14.466863	          992.602858	         -136.489459	           -0.219136	            0.006089	           -0.373409	            0.098099	           -6.730767	            0.925525	           -1.866502	          892.399482	          103.094803	           -0.232626	            0.005741	           -0.725063	           -0.008164	            3.903314	            0.450932
            1.256500	          -14.794391	         1003.967489	         -138.274202	           -0.219327	            0.006088	           -0.373285	            0.100790	           -6.839775	            0.942027	           -0.961036	          901.238972	          103.970650	           -0.232803	            0.005741	           -0.725082	           -0.004105	            3.849636	            0.444110
            1.257000	          -14.662980	         1013.168702	         -140.023492	           -0.219471	            0.006088	           -0.373288	            0.100957	           -6.975850	            0.964087	           -0.337854	          910.444557	          105.176419	           -0.232883	            0.005741	           -0.725104	           -0.001434	            3.864242	            0.446405
            1.257500	          -14.761293	         1024.533255	         -141.808804	           -0.219749	            0.006088	           -0.373281	            0.101376	           -7.036179	            0.973899	            0.099462	          919.279510	          106.850249	           -0.233127	            0.005740	           -0.725206	            0.000419	            3.872502	            0.450111
            1.258000	          -14.583959	         1033.914699	         -143.511597	           -0.219889	            0.006088	           -0.373301	            0.097814	           -6.934416	            0.962525	            0.629150	          928.483083	          108.525339	           -0.233205	            0.005740	           -0.725328	            0.002641	            3.896866	            0.455483
            1.258500	          -14.224133	         1044.378646	         -145.485321	           -0.220066	            0.006088	           -0.373265	            0.092597	           -6.798747	            0.947087	            1.441766	          937.136649	          109.822929	           -0.233457	            0.005739	           -0.725302	            0.005971	            3.881342	            0.454854
            1.259000	          -14.001509	         1054.301652	         -147.369348	           -0.220200	            0.006088	           -0.373321	            0.088290	           -6.648175	            0.929276	            1.828786	          946.893202	          111.218481	           -0.233577	            0.005739	           -0.725306	            0.007672	            3.972407	            0.466584
            1.259500	          -13.319788	         1063.682752	         -149.027526	           -0.220444	            0.006089	           -0.373428	            0.082754	           -6.608491	            0.925884	            2.314015	          955.362096	          112.280905	           -0.233742	            0.005739	           -0.725439	            0.009602	            3.964162	            0.465896
            1.260000	          -13.005122	         1074.145755	         -150.726023	           -0.220763	            0.006088	           -0.373395	            0.081122	           -6.700196	            0.940183	            2.797250	          964.383596	          113.345300	           -0.233885	            0.005738	           -0.725378	            0.011505	            3.966420	            0.466179
            1.260500	          -12.461487	         1085.329940	         -152.467834	           -0.220934	            0.006088	           -0.373235	            0.077809	           -6.776764	            0.952004	            3.091359	          973.954605	          115.021818	           -0.234097	            0.005738	           -0.725458	            0.012425	            3.914542	            0.462298
